# xmcd
#
# Track frame offsets:
#	150
#	17279
#	37450
#	53903
#	71109
#	89541
#	104742
#	121475
#	144505
#	164906
#	183348
#	203641
#	227569
#	246194
#	263285
#	280894
#	299702
#	319261
#	328549
#	338942
#
# Disc length: 4677
#
# Revision: 5
# Processed by: cddbd v1.5.1PL0 Copyright (c) Steve Scherf et al.
# Submitted via: FreeRIP 2.11 
# Normalized: r4:DSETVAR1,TDELIM( - )
#
DISCID=3b124314
DTITLE=Various Artist - Las 101 Mejores Canciones del Planeta Tierra [CD3)
DYEAR=1900
DGENRE=
TTITLE0=A-ha - Take on me
TTITLE1=Lisa Stanfield - All around the world
TTITLE2=Fleetwood Mac - Go your own way
TTITLE3=Matt Bianco - Don't blame it on that girl
TTITLE4=Ray Parker Jr - Ghostbusters
TTITLE5=Hall and Oates - Maneater
TTITLE6=Howard Jones - What's love?
TTITLE7=Chris Rea - On the beach
TTITLE8=Christopher Cross - Ride like the wind
TTITLE9=Barry Manilow - Copacabana
TTITLE10=Haddaway - What is love
TTITLE11=Londonbeat - I've been thinking about you
TTITLE12=Laura Branigan - Self control
TTITLE13=Thompson Twins - In the name of love
TTITLE14=Air Supply - Lost in love
TTITLE15=America - A horse with no name
TTITLE16=Carly Simon - You are so vain
TTITLE17=The Everly Brothers - Wake up little Susie
TTITLE18=Neil Sedaka - Oh Carol
TTITLE19=Stray Cats - Rock this town
EXTD=
EXTT0=
EXTT1=
EXTT2=
EXTT3=
EXTT4=
EXTT5=
EXTT6=
EXTT7=
EXTT8=
EXTT9=
EXTT10=
EXTT11=
EXTT12=
EXTT13=
EXTT14=
EXTT15=
EXTT16=
EXTT17=
EXTT18=
EXTT19=
PLAYORDER=
